<?xml version="1.0" encoding="utf-8"?>
<!-- Generator: Adobe Illustrator 15.0.0, SVG Export Plug-In . SVG Version: 6.00 Build 0)  -->
<!DOCTYPE svg PUBLIC "-//W3C//DTD SVG 1.1//EN" "http://www.w3.org/Graphics/SVG/1.1/DTD/svg11.dtd">
<svg version="1.1" id="Layer_1" xmlns="http://www.w3.org/2000/svg" xmlns:xlink="http://www.w3.org/1999/xlink" x="0px" y="0px"
	 width="350px" height="250px" viewBox="0 0 350 250" enable-background="new 0 0 350 250" xml:space="preserve">
<g>
	<polygon fill="#FF9933" points="225.3,84.9 161.6,141.6 189.9,141.6 154.5,198.3 225.3,127.4 197,127.4 	"/>
	<polygon fill="#333333" points="89.9,108.5 53.7,168.3 126.5,167.9 	"/>
	<path fill="#333333" d="M188.6,30.6c-44.3,0-82.3,26.8-98.9,65h18.4C123.3,67,153.3,47.4,188,47.2c50.3-0.3,91.4,40.1,91.7,90.4
		c0.3,50.3-40.2,91.4-90.5,91.7c-42.5,0.3-78.4-28.6-88.7-67.9h-17c10.6,48.3,53.6,84.4,105.1,84.4c59.4,0,107.6-48.2,107.6-107.6
		C296.3,78.8,248.1,30.6,188.6,30.6"/>
	<path fill="#333333" d="M205,21.5c0,9.6-8.5,17.4-19,17.4c-10.5,0-19-7.8-19-17.4c0-9.6,8.5-17.4,19-17.4
		C196.5,4.1,205,11.9,205,21.5"/>
</g>
</svg>
