<?xml version="1.0" encoding="utf-8"?>
<!-- Generator: Adobe Illustrator 15.0.0, SVG Export Plug-In . SVG Version: 6.00 Build 0)  -->
<!DOCTYPE svg PUBLIC "-//W3C//DTD SVG 1.1//EN" "http://www.w3.org/Graphics/SVG/1.1/DTD/svg11.dtd">
<svg version="1.1" id="Layer_1" xmlns="http://www.w3.org/2000/svg" xmlns:xlink="http://www.w3.org/1999/xlink" x="0px" y="0px"
	 width="208px" height="51px" viewBox="0 0 208 51" enable-background="new 0 0 208 51" xml:space="preserve">
<g>
	<path fill="#1E90AE" d="M64.9,17.2c4.5,0,6.7,2.4,6.7,2.4l-1.3,1.9c0,0-2.1-2-5.3-2c-4.1,0-6.8,3.1-6.8,7.1c0,4,2.8,7.3,6.9,7.3
		c3.5,0,5.7-2.4,5.7-2.4l1.4,1.9c0,0-2.5,2.9-7.2,2.9c-5.6,0-9.5-4.2-9.5-9.7C55.5,21.2,59.5,17.2,64.9,17.2z"/>
	<path fill="#1E90AE" d="M75.1,22.7h2.5V25c0,0.6-0.1,1-0.1,1h0.1c0.6-1.9,2.1-3.5,4.2-3.5c0.3,0,0.7,0.1,0.7,0.1v2.5
		c0,0-0.3-0.1-0.7-0.1c-1.6,0-3.1,1.2-3.7,3.1c-0.2,0.8-0.3,1.6-0.3,2.4V36h-2.5V22.7z"/>
	<path fill="#1E90AE" d="M91.1,22.4c4,0,7.2,2.9,7.2,6.9c0,4-3.2,7-7.2,7c-4,0-7.2-2.9-7.2-7C83.9,25.3,87.1,22.4,91.1,22.4z
		 M91.1,34.1c2.5,0,4.6-2,4.6-4.8c0-2.8-2-4.7-4.6-4.7c-2.5,0-4.6,2-4.6,4.7C86.5,32.1,88.6,34.1,91.1,34.1z"/>
	<path fill="#1E90AE" d="M99.7,22.7h2.7l2.8,9.3c0.2,0.7,0.3,1.4,0.3,1.4h0.1c0,0,0.1-0.7,0.3-1.4l2.9-9.3h2.3l2.9,9.3
		c0.2,0.7,0.4,1.4,0.4,1.4h0.1c0,0,0.1-0.7,0.3-1.4l2.8-9.3h2.7L115.9,36H113l-2.8-8.5c-0.2-0.7-0.4-1.4-0.4-1.4h-0.1
		c0,0-0.2,0.8-0.4,1.4l-2.7,8.5H104L99.7,22.7z"/>
	<path fill="#1E90AE" d="M127.7,22.4c3.1,0,4.1,2.1,4.1,2.1h0.1c0,0-0.1-0.4-0.1-0.9v-6.1h2.5V36h-2.4v-1.3c0-0.5,0-0.9,0-0.9h-0.1
		c0,0-1.1,2.5-4.4,2.5c-3.6,0-5.8-2.8-5.8-6.9C121.7,25.1,124.2,22.4,127.7,22.4z M128,34.1c2,0,3.8-1.4,3.8-4.8
		c0-2.4-1.2-4.7-3.7-4.7c-2.1,0-3.8,1.7-3.8,4.7C124.3,32.2,125.8,34.1,128,34.1z"/>
	<path fill="#FF9933" d="M138.8,17.5H149v2.3h-7.6v6.1h6.5v2.3h-6.5V36h-2.6V17.5z"/>
	<path fill="#FF9933" d="M151.6,22.7h2.5v7.9c0,1.8,0.4,3.3,2.5,3.3c2.7,0,4.3-2.4,4.3-5v-6.2h2.5V36h-2.5v-1.8c0-0.6,0.1-1,0.1-1
		h-0.1c-0.6,1.3-2.3,3-4.9,3c-3,0-4.5-1.6-4.5-5.1V22.7z"/>
	<path fill="#FF9933" d="M167.3,17.5h2.5v14.4c0,1.6,0.6,1.9,1.4,1.9c0.2,0,0.4,0,0.4,0V36c0,0-0.4,0.1-0.8,0.1
		c-1.4,0-3.6-0.4-3.6-3.7V17.5z"/>
	<path fill="#FF9933" d="M183.3,24.8h-5.6V36h-2.5V24.8h-1.7v-2h1.7v-0.4c0-4.4,3.3-4.9,5-4.9c0.6,0,1,0.1,1,0.1v2.2
		c0,0-0.3-0.1-0.7-0.1c-1,0-2.8,0.3-2.8,2.8v0.4h8.1V36h-2.5V24.8z M183.2,17.5h2.6v2.6h-2.6V17.5z"/>
	<path fill="#FF9933" d="M189.6,17.5h2.5v14.4c0,1.6,0.6,1.9,1.4,1.9c0.2,0,0.4,0,0.4,0V36c0,0-0.4,0.1-0.8,0.1
		c-1.4,0-3.6-0.4-3.6-3.7V17.5z"/>
	<path fill="#FF9933" d="M196.6,17.5h2.5v14.4c0,1.6,0.6,1.9,1.4,1.9c0.2,0,0.4,0,0.4,0V36c0,0-0.4,0.1-0.8,0.1
		c-1.4,0-3.6-0.4-3.6-3.7V17.5z"/>
</g>
<path fill="#F7931E" d="M17.2,14c0,1.7,0.9,3.2,1.6,4.8l5.3,1.2c-2.4-2.8-3-5.8-3-5.8c-0.1-3.8,2.6-6.1,5.8-6.1
	c3.2,0,6.1,2.2,5.5,7.2c0,0-0.3,1.4-2.6,4.6l5-1.1c0.8-1.4,1.7-3.3,1.7-5.1c0-6.1-4.6-9.8-9.7-9.8C21.7,4.1,17,8.3,17.2,14"/>
<path fill="#82AAAA" d="M8.4,15.8c-2.2,4.6-0.3,10.6,4.9,12.9c1.6,0.7,3,0.8,4,0.7l3.7-3.7c-0.7,0-5.6-0.4-5.6-0.4
	c-3.5-1.5-4.5-4.8-3.1-7.7c1.4-2.9,4.5-4.5,8.8-1.8c0,0,1.5,2.2,3.2,4.4l1.2-5.4c-1-1.3-2.3-2.7-3.9-3.4c-1.5-0.7-3-1.1-4.5-1.1
	C13.2,10.2,10,12.5,8.4,15.8"/>
<path fill="#1E90AE" d="M12.1,23.1c-5.3,3.2-6,9-3.4,13.4c2.6,4.4,8.6,6.1,13.5,3c1.5-0.9,2.6-2.2,3.1-3.1l-1.3-5.1
	c-0.4,0.5-3.5,4.6-3.5,4.6c-3.2,2.1-6.5,1.1-8.2-1.6c-1.6-2.7-1.3-6.3,3.3-8.3c0,0,2.6-0.5,5.4-0.3l-3.7-3.9
	C15.5,21.9,13.6,22.2,12.1,23.1"/>
<path fill="#8CAA75" d="M32.5,36.7c0.2,3.8-2.3,6.2-5.4,6.3c-3.2,0.1-6.1-2-5.6-7c0,0,0.9-2.4,2.4-4.7l-5.2,1.2
	c-0.7,1.5-1.5,3.3-1.4,5c0.2,6.1,4.8,9.7,9.9,9.6c5.1-0.1,9.5-4.4,9.3-10.1c-0.1-1.7-1.1-3.8-1.7-4.6l-5.2-1.3
	C29.9,31.8,32.5,36.7,32.5,36.7"/>
<path fill="#EDC63F" d="M36.2,22.1l-3.7,3.6c0.7,0,6,0.6,6,0.6c3.4,1.6,4.4,5,2.9,7.8s-4.7,4.4-8.8,1.5c0,0-1.8-2-3.1-4.5l-1.3,5.2
	c0.9,1.3,2.2,2.8,3.7,3.7c5.4,2.8,10.8,0.4,13.2-4.1c2.3-4.5,0.7-10.5-4.4-13c-1.3-0.7-3-0.9-4.1-0.9C36.5,22,36.4,22.1,36.2,22.1"
	/>
<path fill="#CFD652" d="M35.9,10.4c0.5,1,0.6,3.6,0.6,3.9c1.9,0,3.6,1,4.6,2.6c1.7,2.7,1.4,6.3-3.1,8.4c0,0-2.6,0.5-5.4,0.4l3.8,3.8
	c1.6-0.1,3.5-0.4,5-1.4c5.2-3.3,5.8-9.1,3.1-13.4c-1.7-2.7-4.7-4.3-7.8-4.3C36.4,10.3,36.2,10.3,35.9,10.4"/>
</svg>
