<?xml version="1.0" encoding="utf-8"?>
<!-- Generator: Adobe Illustrator 15.0.0, SVG Export Plug-In . SVG Version: 6.00 Build 0)  -->
<!DOCTYPE svg PUBLIC "-//W3C//DTD SVG 1.1//EN" "http://www.w3.org/Graphics/SVG/1.1/DTD/svg11.dtd">
<svg version="1.1" id="Layer_1" xmlns="http://www.w3.org/2000/svg" xmlns:xlink="http://www.w3.org/1999/xlink" x="0px" y="0px"
	 width="208px" height="51px" viewBox="0 0 208 51" enable-background="new 0 0 208 51" xml:space="preserve">
<text id="CrowdFulfill-Sm" transform="matrix(1 0 0 1 54.2109 35.9727)"><tspan x="0" y="0" fill="#1E90AE" font-family="'MuseoSans-500'" font-size="26.2073">Crowd</tspan><tspan x="82.186" y="0" fill="#FF9933" font-family="'MuseoSans-500'" font-size="26.2073">Fulfill</tspan></text>
<g id="Flat_Logo_-_Sm">
	<g>
		<defs>
			<path id="SVGID_1_" d="M17.155,13.998c0.036,1.719,0.869,3.215,1.591,4.836l5.314,1.242c-2.371-2.832-3.015-5.816-3.015-5.816
				c-0.141-3.764,2.562-6.063,5.751-6.063c3.19,0,6.094,2.238,5.473,7.201c0,0-0.278,1.449-2.593,4.646l5.044-1.113
				c0.762-1.438,1.718-3.289,1.718-5.061c0-6.135-4.602-9.803-9.69-9.803C21.662,4.068,17.036,8.293,17.155,13.998"/>
		</defs>
		<use xlink:href="#SVGID_1_"  overflow="visible" fill="#F7931E"/>
		<clipPath id="SVGID_2_">
			<use xlink:href="#SVGID_1_"  overflow="visible"/>
		</clipPath>
		
			<rect x="18.145" y="1.891" transform="matrix(-0.0624 -0.9981 0.9981 -0.0624 16.3558 39.5122)" clip-path="url(#SVGID_2_)" fill="#F7931E" width="17.186" height="20.365"/>
	</g>
	<g>
		<defs>
			<path id="SVGID_3_" d="M8.386,15.814c-2.192,4.59-0.324,10.57,4.875,12.92c1.567,0.709,3.04,0.791,3.99,0.658l3.652-3.707
				c-0.656-0.012-5.621-0.418-5.621-0.418c-3.458-1.496-4.523-4.84-3.149-7.717c1.374-2.881,4.542-4.521,8.753-1.822
				c0,0,1.52,2.184,3.167,4.379l1.241-5.369c-0.968-1.309-2.29-2.684-3.887-3.445c-1.532-0.732-3.047-1.064-4.481-1.064
				C13.179,10.229,9.972,12.494,8.386,15.814"/>
		</defs>
		<use xlink:href="#SVGID_3_"  overflow="visible" fill="#82AAAA"/>
		<clipPath id="SVGID_4_">
			<use xlink:href="#SVGID_3_"  overflow="visible"/>
		</clipPath>
		
			<rect x="2.844" y="6.934" transform="matrix(-0.8899 -0.4562 0.4562 -0.8899 20.6866 44.7492)" clip-path="url(#SVGID_4_)" fill="#82AAAA" width="25.8" height="25.888"/>
	</g>
	<g>
		<g>
			<defs>
				<path id="SVGID_5_" d="M12.087,23.088c-5.253,3.166-6.018,9.002-3.391,13.359c2.626,4.357,8.648,6.09,13.472,3.041
					c1.454-0.918,2.644-2.188,3.055-3.055l-1.337-5.107c-0.37,0.541-3.502,4.566-3.502,4.566c-3.151,2.064-6.529,1.113-8.176-1.619
					c-1.646-2.73-1.275-6.279,3.297-8.311c0,0,2.62-0.451,5.397-0.275l-3.745-3.857C15.532,21.918,13.604,22.172,12.087,23.088"/>
			</defs>
			<clipPath id="SVGID_6_">
				<use xlink:href="#SVGID_5_"  overflow="visible"/>
			</clipPath>
		</g>
		<g>
			<defs>
				<path id="SVGID_7_" d="M12.087,23.088c-5.253,3.166-6.018,9.002-3.391,13.359c2.626,4.357,8.648,6.09,13.472,3.041
					c1.454-0.918,2.644-2.188,3.055-3.055l-1.337-5.107c-0.37,0.541-3.502,4.566-3.502,4.566c-3.151,2.064-6.529,1.113-8.176-1.619
					c-1.646-2.73-1.275-6.279,3.297-8.311c0,0,2.62-0.451,5.397-0.275l-3.745-3.857C15.532,21.918,13.604,22.172,12.087,23.088"/>
			</defs>
			<use xlink:href="#SVGID_7_"  overflow="visible" fill="#1E90AE"/>
			<clipPath id="SVGID_8_">
				<use xlink:href="#SVGID_7_"  overflow="visible"/>
			</clipPath>
			
				<rect x="2.536" y="18.708" transform="matrix(-0.9018 0.4321 -0.4321 -0.9018 43.6599 54.4468)" clip-path="url(#SVGID_8_)" fill="#1E90AE" width="26.219" height="26.949"/>
		</g>
		<g>
			<defs>
				<path id="SVGID_9_" d="M12.087,23.088c-5.253,3.166-6.018,9.002-3.391,13.359c2.626,4.357,8.648,6.09,13.472,3.041
					c1.454-0.918,2.644-2.188,3.055-3.055l-1.337-5.107c-0.37,0.541-3.502,4.566-3.502,4.566c-3.151,2.064-6.529,1.113-8.176-1.619
					c-1.646-2.73-1.275-6.279,3.297-8.311c0,0,2.62-0.451,5.397-0.275l-3.745-3.857C15.532,21.918,13.604,22.172,12.087,23.088"/>
			</defs>
			<clipPath id="SVGID_10_">
				<use xlink:href="#SVGID_9_"  overflow="visible"/>
			</clipPath>
		</g>
	</g>
	<g>
		<defs>
			<path id="SVGID_11_" d="M32.484,36.727c0.236,3.76-2.261,6.227-5.45,6.307c-3.188,0.08-6.087-1.996-5.592-6.977
				c0,0,0.917-2.391,2.443-4.715l-5.218,1.236c-0.726,1.455-1.459,3.256-1.414,5.027c0.154,6.133,4.848,9.682,9.934,9.555
				c5.086-0.129,9.524-4.381,9.26-10.078c-0.08-1.719-1.143-3.842-1.694-4.627l-5.155-1.273
				C29.886,31.771,32.484,36.727,32.484,36.727"/>
		</defs>
		<use xlink:href="#SVGID_11_"  overflow="visible" fill="#8CAA75"/>
		<clipPath id="SVGID_12_">
			<use xlink:href="#SVGID_11_"  overflow="visible"/>
		</clipPath>
		
			<rect x="18.708" y="29.32" transform="matrix(0.0205 0.9998 -0.9998 0.0205 65.6315 11.4754)" clip-path="url(#SVGID_12_)" fill="#8CAA75" width="16.502" height="19.829"/>
	</g>
	<g>
		<defs>
			<path id="SVGID_13_" d="M36.249,22.064l-3.676,3.629c0.655,0.031,5.996,0.596,5.996,0.596c3.409,1.604,4.367,4.979,2.902,7.813
				s-4.683,4.373-8.807,1.543c0,0-1.756-1.996-3.06-4.455L28.278,36.4c0.926,1.338,2.152,2.848,3.725,3.66
				c5.448,2.818,10.82,0.414,13.157-4.104c2.337-4.521,0.75-10.455-4.373-12.971c-1.332-0.652-3.036-0.943-4.09-0.943
				C36.531,22.043,36.379,22.051,36.249,22.064"/>
		</defs>
		<use xlink:href="#SVGID_13_"  overflow="visible" fill="#EDC63F"/>
		<clipPath id="SVGID_14_">
			<use xlink:href="#SVGID_13_"  overflow="visible"/>
		</clipPath>
		<rect x="28.278" y="22.043" clip-path="url(#SVGID_14_)" fill="#EDC63F" width="19.22" height="20.836"/>
	</g>
	<g>
		<defs>
			<path id="SVGID_15_" d="M35.87,10.375c0.542,0.979,0.569,3.643,0.57,3.91c1.867,0.004,3.557,0.971,4.606,2.627
				c1.708,2.695,1.415,6.25-3.111,8.383c0,0-2.609,0.51-5.389,0.395l3.83,3.775c1.622-0.127,3.544-0.424,5.04-1.371
				c5.181-3.283,5.816-9.133,3.092-13.432c-1.728-2.727-4.654-4.328-7.777-4.328C36.445,10.334,36.158,10.348,35.87,10.375"/>
		</defs>
		<use xlink:href="#SVGID_15_"  overflow="visible" fill="#CFD652"/>
		<clipPath id="SVGID_16_">
			<use xlink:href="#SVGID_15_"  overflow="visible"/>
		</clipPath>
		
			<rect x="29.193" y="8.13" transform="matrix(0.9064 -0.4225 0.4225 0.9064 -4.6728 18.7175)" clip-path="url(#SVGID_16_)" fill="#CFD652" width="21.394" height="23.541"/>
	</g>
</g>
</svg>
